<svg width="48" height="48" viewBox="0 0 48 48" fill="none" xmlns="http://www.w3.org/2000/svg">
<circle cx="24" cy="24" r="24" fill="white"/>
<path d="M33.3432 20.1861C33.2286 20.2529 30.5006 21.6637 30.5006 24.7918C30.6292 28.3591 33.9432 29.6102 34 29.6102C33.9432 29.677 33.4997 31.3144 32.186 33.0308C31.1435 34.5093 29.9863 36 28.2292 36C26.5577 36 25.9577 35.0146 24.0292 35.0146C21.958 35.0146 21.372 36 19.7863 36C18.0292 36 16.7863 34.4295 15.6869 32.9648C14.2586 31.0479 13.0447 28.0396 13.0018 25.1512C12.9729 23.6206 13.2878 22.116 14.0872 20.8381C15.2155 19.054 17.2298 17.8429 19.4295 17.8029C21.1149 17.75 22.6149 18.8812 23.6435 18.8812C24.6292 18.8812 26.472 17.8029 28.5571 17.8029C29.4571 17.8038 31.8571 18.0564 33.3432 20.1861ZM23.5009 17.4973C23.2009 16.0996 24.0292 14.7018 24.8006 13.8102C25.7863 12.7319 27.3432 12 28.6857 12C28.7714 13.3978 28.2282 14.7686 27.2574 15.767C26.3863 16.8453 24.8863 17.6571 23.5009 17.4973Z" fill="black"/>
</svg>
