<svg width="240" height="60" viewBox="0 0 240 60" fill="none" xmlns="http://www.w3.org/2000/svg">
<path d="M45.1591 45.2727C43.9318 45.2727 42.875 44.983 41.9886 44.4034C41.1023 43.8239 40.4205 43.0256 39.9432 42.0085C39.4659 40.9915 39.2273 39.8295 39.2273 38.5227C39.2273 37.1932 39.4716 36.0199 39.9602 35.0028C40.4545 33.9801 41.142 33.1818 42.0227 32.608C42.9091 32.0284 43.9432 31.7386 45.125 31.7386C46.0455 31.7386 46.875 31.9091 47.6136 32.25C48.3523 32.5909 48.9574 33.0682 49.429 33.6818C49.9006 34.2955 50.1932 35.0114 50.3068 35.8295H48.2955C48.142 35.233 47.8011 34.7045 47.2727 34.2443C46.75 33.7784 46.0455 33.5455 45.1591 33.5455C44.375 33.5455 43.6875 33.75 43.0966 34.1591C42.5114 34.5625 42.054 35.1335 41.7244 35.8722C41.4006 36.6051 41.2386 37.4659 41.2386 38.4545C41.2386 39.4659 41.3977 40.3466 41.7159 41.0966C42.0398 41.8466 42.4943 42.429 43.0795 42.8438C43.6705 43.2585 44.3636 43.4659 45.1591 43.4659C45.6818 43.4659 46.1562 43.375 46.5824 43.1932C47.0085 43.0114 47.3693 42.75 47.6648 42.4091C47.9602 42.0682 48.1705 41.6591 48.2955 41.1818H50.3068C50.1932 41.9545 49.9119 42.6506 49.4631 43.2699C49.0199 43.8835 48.4318 44.3722 47.6989 44.7358C46.9716 45.0938 46.125 45.2727 45.1591 45.2727ZM88.6591 45.2727C87.5682 45.2727 86.6051 44.9972 85.7699 44.446C84.9347 43.8892 84.2813 43.1051 83.8097 42.0938C83.3381 41.0767 83.1023 39.875 83.1023 38.4886C83.1023 37.1136 83.3381 35.9205 83.8097 34.9091C84.2813 33.8977 84.9375 33.1165 85.7784 32.5653C86.6193 32.0142 87.5909 31.7386 88.6932 31.7386C89.5455 31.7386 90.2188 31.8807 90.7131 32.1648C91.2131 32.4432 91.5938 32.7614 91.8551 33.1193C92.1222 33.4716 92.3295 33.7614 92.4773 33.9886H92.6477V27.5455H94.6591V45H92.7159V42.9886H92.4773C92.3295 43.2273 92.1193 43.5284 91.8466 43.892C91.5739 44.25 91.1847 44.571 90.679 44.8551C90.1733 45.1335 89.5 45.2727 88.6591 45.2727ZM88.9318 43.4659C89.7386 43.4659 90.4205 43.2557 90.9773 42.8352C91.5341 42.4091 91.9574 41.821 92.2472 41.071C92.5369 40.3153 92.6818 39.4432 92.6818 38.4545C92.6818 37.4773 92.5398 36.6222 92.2557 35.8892C91.9716 35.1506 91.5511 34.5767 90.9943 34.1676C90.4375 33.7528 89.75 33.5455 88.9318 33.5455C88.0795 33.5455 87.3693 33.7642 86.8011 34.2017C86.2386 34.6335 85.8153 35.2216 85.5312 35.9659C85.2528 36.7045 85.1136 37.5341 85.1136 38.4545C85.1136 39.3864 85.2557 40.233 85.5398 40.9943C85.8295 41.75 86.2557 42.3523 86.8182 42.8011C87.3864 43.2443 88.0909 43.4659 88.9318 43.4659ZM104.111 45.2727C102.849 45.2727 101.761 44.9943 100.847 44.4375C99.9375 43.875 99.2358 43.0909 98.7415 42.0852C98.2528 41.0739 98.0085 39.8977 98.0085 38.5568C98.0085 37.2159 98.2528 36.0341 98.7415 35.0114C99.2358 33.983 99.9233 33.1818 100.804 32.608C101.69 32.0284 102.724 31.7386 103.906 31.7386C104.588 31.7386 105.261 31.8523 105.926 32.0795C106.591 32.3068 107.196 32.6761 107.741 33.1875C108.287 33.6932 108.722 34.3636 109.045 35.1989C109.369 36.0341 109.531 37.0625 109.531 38.2841V39.1364H99.4403V37.3977H107.486C107.486 36.6591 107.338 36 107.043 35.4205C106.753 34.8409 106.338 34.3835 105.798 34.0483C105.264 33.7131 104.634 33.5455 103.906 33.5455C103.105 33.5455 102.412 33.7443 101.827 34.142C101.247 34.5341 100.801 35.0455 100.489 35.6761C100.176 36.3068 100.02 36.983 100.02 37.7045V38.8636C100.02 39.8523 100.19 40.6903 100.531 41.3778C100.878 42.0597 101.358 42.5795 101.972 42.9375C102.585 43.2898 103.298 43.4659 104.111 43.4659C104.639 43.4659 105.116 43.392 105.543 43.2443C105.974 43.0909 106.347 42.8636 106.659 42.5625C106.972 42.2557 107.213 41.875 107.384 41.4205L109.327 41.9659C109.122 42.625 108.778 43.2045 108.295 43.7045C107.813 44.1989 107.216 44.5852 106.506 44.8636C105.795 45.1364 104.997 45.2727 104.111 45.2727ZM149.659 45.2727C148.477 45.2727 147.44 44.9915 146.548 44.429C145.662 43.8665 144.969 43.0795 144.469 42.0682C143.974 41.0568 143.727 39.875 143.727 38.5227C143.727 37.1591 143.974 35.9687 144.469 34.9517C144.969 33.9347 145.662 33.1449 146.548 32.5824C147.44 32.0199 148.477 31.7386 149.659 31.7386C150.841 31.7386 151.875 32.0199 152.761 32.5824C153.653 33.1449 154.347 33.9347 154.841 34.9517C155.341 35.9687 155.591 37.1591 155.591 38.5227C155.591 39.875 155.341 41.0568 154.841 42.0682C154.347 43.0795 153.653 43.8665 152.761 44.429C151.875 44.9915 150.841 45.2727 149.659 45.2727ZM149.659 43.4659C150.557 43.4659 151.295 43.2358 151.875 42.7756C152.455 42.3153 152.884 41.7102 153.162 40.9602C153.44 40.2102 153.58 39.3977 153.58 38.5227C153.58 37.6477 153.44 36.8324 153.162 36.0767C152.884 35.321 152.455 34.7102 151.875 34.2443C151.295 33.7784 150.557 33.5455 149.659 33.5455C148.761 33.5455 148.023 33.7784 147.443 34.2443C146.864 34.7102 146.435 35.321 146.156 36.0767C145.878 36.8324 145.739 37.6477 145.739 38.5227C145.739 39.3977 145.878 40.2102 146.156 40.9602C146.435 41.7102 146.864 42.3153 147.443 42.7756C148.023 43.2358 148.761 43.4659 149.659 43.4659ZM160.673 37.125V45H158.661V31.9091H160.604V33.9545H160.775C161.082 33.2898 161.548 32.7557 162.173 32.3523C162.798 31.9432 163.604 31.7386 164.593 31.7386C165.479 31.7386 166.255 31.9205 166.92 32.2841C167.585 32.642 168.102 33.1875 168.471 33.9205C168.84 34.6477 169.025 35.5682 169.025 36.6818V45H167.013V36.8182C167.013 35.7898 166.746 34.9886 166.212 34.4148C165.678 33.8352 164.945 33.5455 164.013 33.5455C163.371 33.5455 162.798 33.6847 162.292 33.9631C161.792 34.2415 161.397 34.6477 161.107 35.1818C160.817 35.7159 160.673 36.3636 160.673 37.125ZM178.189 45.2727C176.928 45.2727 175.839 44.9943 174.925 44.4375C174.016 43.875 173.314 43.0909 172.82 42.0852C172.331 41.0739 172.087 39.8977 172.087 38.5568C172.087 37.2159 172.331 36.0341 172.82 35.0114C173.314 33.983 174.001 33.1818 174.882 32.608C175.768 32.0284 176.803 31.7386 177.984 31.7386C178.666 31.7386 179.339 31.8523 180.004 32.0795C180.669 32.3068 181.274 32.6761 181.82 33.1875C182.365 33.6932 182.8 34.3636 183.124 35.1989C183.447 36.0341 183.609 37.0625 183.609 38.2841V39.1364H173.518V37.3977H181.564C181.564 36.6591 181.416 36 181.121 35.4205C180.831 34.8409 180.416 34.3835 179.876 34.0483C179.342 33.7131 178.712 33.5455 177.984 33.5455C177.183 33.5455 176.49 33.7443 175.905 34.142C175.325 34.5341 174.879 35.0455 174.567 35.6761C174.254 36.3068 174.098 36.983 174.098 37.7045V38.8636C174.098 39.8523 174.268 40.6903 174.609 41.3778C174.956 42.0597 175.436 42.5795 176.05 42.9375C176.663 43.2898 177.376 43.4659 178.189 43.4659C178.717 43.4659 179.195 43.392 179.621 43.2443C180.053 43.0909 180.425 42.8636 180.737 42.5625C181.05 42.2557 181.291 41.875 181.462 41.4205L183.405 41.9659C183.2 42.625 182.857 43.2045 182.374 43.7045C181.891 44.1989 181.294 44.5852 180.584 44.8636C179.874 45.1364 179.075 45.2727 178.189 45.2727Z" fill="white" fill-opacity="0.7"/>
<path d="M79.4744 30.4545C79.4744 33.5227 78.9205 36.1742 77.8125 38.4091C76.7045 40.6439 75.1847 42.3674 73.2528 43.5795C71.321 44.7917 69.1146 45.3977 66.6335 45.3977C64.1525 45.3977 61.946 44.7917 60.0142 43.5795C58.0824 42.3674 56.5625 40.6439 55.4545 38.4091C54.3466 36.1742 53.7926 33.5227 53.7926 30.4545C53.7926 27.3864 54.3466 24.7348 55.4545 22.5C56.5625 20.2652 58.0824 18.5417 60.0142 17.3295C61.946 16.1174 64.1525 15.5114 66.6335 15.5114C69.1146 15.5114 71.321 16.1174 73.2528 17.3295C75.1847 18.5417 76.7045 20.2652 77.8125 22.5C78.9205 24.7348 79.4744 27.3864 79.4744 30.4545ZM76.0653 30.4545C76.0653 27.9356 75.6439 25.8097 74.8011 24.0767C73.9678 22.3438 72.8362 21.0322 71.4062 20.142C69.9858 19.2519 68.3949 18.8068 66.6335 18.8068C64.8722 18.8068 63.2765 19.2519 61.8466 20.142C60.4261 21.0322 59.2945 22.3438 58.4517 24.0767C57.6184 25.8097 57.2017 27.9356 57.2017 30.4545C57.2017 32.9735 57.6184 35.0994 58.4517 36.8324C59.2945 38.5653 60.4261 39.8769 61.8466 40.767C63.2765 41.6572 64.8722 42.1023 66.6335 42.1023C68.3949 42.1023 69.9858 41.6572 71.4062 40.767C72.8362 39.8769 73.9678 38.5653 74.8011 36.8324C75.6439 35.0994 76.0653 32.9735 76.0653 30.4545ZM120.057 45V42.4432L135.739 19.0341H119.886V15.9091H139.943V18.4659L124.261 41.875H140.114V45H120.057Z" fill="white"/>
<path d="M31.5 23L18 36.5L31.5 50" stroke="white" stroke-opacity="0.7" stroke-width="2"/>
<path d="M209 50L222.5 36.5L209 23" stroke="white" stroke-opacity="0.7" stroke-width="2"/>
<path d="M203.5 16L191 52.5" stroke="white" stroke-opacity="0.7" stroke-width="2"/>
</svg>
