<svg width="48" height="48" viewBox="0 0 48 48" fill="none" xmlns="http://www.w3.org/2000/svg">
<circle cx="24" cy="24" r="24" fill="#FFE812"/>
<path d="M24.5 13C17.0441 13 11 17.7818 11 23.6802C11 27.4937 13.5268 30.8399 17.3279 32.7294C17.1211 33.445 15.999 37.3328 15.9544 37.6383C15.9544 37.6383 15.9275 37.8678 16.0756 37.9553C16.2237 38.0428 16.3979 37.9748 16.3979 37.9748C16.8227 37.9153 21.3232 34.7433 22.1022 34.1925C22.8804 34.303 23.6817 34.3605 24.5 34.3605C31.9559 34.3605 38 29.5789 38 23.6802C38 17.7818 31.9559 13 24.5 13Z" fill="black"/>
<path d="M16.7414 27C16.3145 27 15.9674 26.6614 15.9674 26.245V21.5482H14.7596C14.3407 21.5482 14 21.2009 14 20.7741C14 20.3473 14.3408 20 14.7596 20H18.7232C19.1421 20 19.4828 20.3473 19.4828 20.7741C19.4828 21.2009 19.142 21.5482 18.7232 21.5482H17.5155V26.245C17.5155 26.6614 17.1683 27 16.7414 27ZM23.5288 26.9897C23.206 26.9897 22.9591 26.8559 22.8846 26.6405L22.5014 25.6157L20.141 25.6155L19.7575 26.6411C19.6833 26.856 19.4365 26.9897 19.1137 26.9897C18.944 26.9899 18.7761 26.9527 18.6217 26.8806C18.4083 26.7801 18.2032 26.5036 18.4383 25.758L20.2898 20.7804C20.4202 20.4019 20.8164 20.0119 21.3206 20.0001C21.8261 20.0117 22.2223 20.4019 22.353 20.7812L24.2037 25.7565C24.4393 26.5039 24.2342 26.7805 24.0208 26.8808C23.8664 26.9527 23.6985 26.9899 23.5288 26.9897C23.5286 26.9897 23.5288 26.9897 23.5288 26.9897V26.9897ZM22.0943 24.2153L21.3212 21.972L20.5481 24.2153H22.0943V24.2153ZM25.4494 26.8847C25.0404 26.8847 24.7077 26.5595 24.7077 26.16V20.7906C24.7077 20.3546 25.0622 20 25.4978 20C25.9335 20 26.288 20.3546 26.288 20.7906V25.4353H27.9328C28.3419 25.4353 28.6746 25.7605 28.6746 26.16C28.6746 26.5595 28.3419 26.8847 27.9328 26.8847H25.4494ZM29.7498 26.9897C29.3229 26.9897 28.9757 26.6351 28.9757 26.1991V20.7906C28.9757 20.3546 29.3229 20 29.7498 20C30.1767 20 30.5238 20.3546 30.5238 20.7906V22.4898L32.6834 20.2841C32.7945 20.1706 32.9471 20.1082 33.1128 20.1082C33.306 20.1082 33.5001 20.1933 33.6454 20.3417C33.781 20.48 33.8619 20.658 33.873 20.8429C33.8842 21.0293 33.8235 21.2002 33.7022 21.3242L31.9383 23.1256L33.8436 25.7037C33.9051 25.7864 33.9499 25.8808 33.9754 25.9813C34.001 26.0819 34.0067 26.1866 33.9922 26.2894C33.9784 26.3923 33.9448 26.4913 33.8932 26.5808C33.8417 26.6703 33.7732 26.7485 33.6919 26.8108C33.558 26.9147 33.3944 26.9708 33.2263 26.9704C33.1064 26.9709 32.988 26.9428 32.8806 26.8882C32.7732 26.8337 32.6798 26.7542 32.608 26.6561L30.7927 24.1995L30.5241 24.4738V26.1987C30.5239 26.4084 30.4422 26.6095 30.2971 26.7577C30.1519 26.906 29.9551 26.9894 29.7498 26.9897V26.9897Z" fill="#FFE812"/>
</svg>
