<svg width="776" height="194" viewBox="0 0 776 194" fill="none" xmlns="http://www.w3.org/2000/svg">
<path d="M194.246 130.795C190.666 130.795 187.584 129.95 184.999 128.26C182.414 126.57 180.425 124.241 179.033 121.275C177.641 118.308 176.945 114.92 176.945 111.108C176.945 107.23 177.657 103.808 179.083 100.842C180.524 97.8587 182.53 95.5303 185.098 93.8565C187.683 92.1662 190.7 91.321 194.146 91.321C196.831 91.321 199.251 91.8182 201.405 92.8125C203.559 93.8068 205.324 95.1989 206.7 96.9886C208.075 98.7784 208.929 100.866 209.26 103.253H203.394C202.946 101.513 201.952 99.9716 200.411 98.6293C198.886 97.2704 196.831 96.5909 194.246 96.5909C191.959 96.5909 189.954 97.1875 188.23 98.3807C186.523 99.5573 185.189 101.223 184.228 103.377C183.284 105.515 182.811 108.026 182.811 110.909C182.811 113.859 183.275 116.428 184.203 118.615C185.148 120.803 186.474 122.501 188.181 123.711C189.904 124.921 191.926 125.526 194.246 125.526C195.771 125.526 197.154 125.26 198.397 124.73C199.64 124.2 200.692 123.438 201.554 122.443C202.416 121.449 203.029 120.256 203.394 118.864H209.26C208.929 121.117 208.108 123.147 206.799 124.954C205.507 126.744 203.791 128.169 201.654 129.229C199.532 130.273 197.063 130.795 194.246 130.795ZM300.808 130.795C297.627 130.795 294.818 129.992 292.382 128.384C289.945 126.76 288.04 124.473 286.664 121.523C285.289 118.557 284.601 115.052 284.601 111.009C284.601 106.998 285.289 103.518 286.664 100.568C288.04 97.6184 289.954 95.3397 292.406 93.7322C294.859 92.1248 297.693 91.321 300.908 91.321C303.394 91.321 305.357 91.7353 306.799 92.5639C308.258 93.3759 309.368 94.304 310.13 95.348C310.909 96.3755 311.514 97.2206 311.945 97.8835H312.442V79.0909H318.308V130H312.641V124.134H311.945C311.514 124.83 310.901 125.708 310.105 126.768C309.31 127.812 308.175 128.749 306.7 129.577C305.225 130.389 303.261 130.795 300.808 130.795ZM301.604 125.526C303.957 125.526 305.946 124.912 307.57 123.686C309.194 122.443 310.428 120.728 311.274 118.54C312.119 116.336 312.541 113.793 312.541 110.909C312.541 108.059 312.127 105.565 311.298 103.427C310.47 101.272 309.244 99.5987 307.619 98.4055C305.995 97.1958 303.99 96.5909 301.604 96.5909C299.118 96.5909 297.047 97.2289 295.389 98.505C293.749 99.7644 292.514 101.48 291.686 103.651C290.874 105.805 290.468 108.224 290.468 110.909C290.468 113.627 290.882 116.096 291.71 118.317C292.556 120.521 293.798 122.277 295.439 123.587C297.096 124.879 299.151 125.526 301.604 125.526ZM345.876 130.795C342.197 130.795 339.023 129.983 336.355 128.359C333.704 126.719 331.657 124.432 330.215 121.499C328.79 118.549 328.078 115.118 328.078 111.207C328.078 107.296 328.79 103.849 330.215 100.866C331.657 97.867 333.662 95.5303 336.231 93.8565C338.816 92.1662 341.832 91.321 345.279 91.321C347.268 91.321 349.232 91.6525 351.171 92.3153C353.11 92.9782 354.874 94.0554 356.465 95.5469C358.056 97.0218 359.324 98.9773 360.269 101.413C361.213 103.849 361.686 106.849 361.686 110.412V112.898H332.254V107.827H355.72C355.72 105.672 355.289 103.75 354.427 102.06C353.582 100.369 352.372 99.0353 350.798 98.0575C349.24 97.0798 347.401 96.5909 345.279 96.5909C342.943 96.5909 340.921 97.1709 339.214 98.331C337.524 99.4744 336.223 100.966 335.311 102.805C334.4 104.645 333.944 106.617 333.944 108.722V112.102C333.944 114.986 334.441 117.43 335.436 119.435C336.446 121.424 337.847 122.94 339.637 123.984C341.426 125.012 343.506 125.526 345.876 125.526C347.417 125.526 348.809 125.31 350.052 124.879C351.311 124.432 352.397 123.769 353.308 122.891C354.22 121.996 354.924 120.885 355.421 119.56L361.089 121.151C360.492 123.073 359.49 124.763 358.081 126.222C356.673 127.663 354.932 128.79 352.861 129.602C350.789 130.398 348.461 130.795 345.876 130.795ZM462.058 130.795C458.611 130.795 455.587 129.975 452.985 128.335C450.4 126.694 448.378 124.399 446.92 121.449C445.478 118.499 444.757 115.052 444.757 111.108C444.757 107.131 445.478 103.659 446.92 100.692C448.378 97.7261 450.4 95.4226 452.985 93.782C455.587 92.1413 458.611 91.321 462.058 91.321C465.505 91.321 468.521 92.1413 471.107 93.782C473.709 95.4226 475.73 97.7261 477.172 100.692C478.63 103.659 479.36 107.131 479.36 111.108C479.36 115.052 478.63 118.499 477.172 121.449C475.73 124.399 473.709 126.694 471.107 128.335C468.521 129.975 465.505 130.795 462.058 130.795ZM462.058 125.526C464.677 125.526 466.831 124.854 468.521 123.512C470.212 122.17 471.463 120.405 472.275 118.217C473.087 116.03 473.493 113.66 473.493 111.108C473.493 108.556 473.087 106.178 472.275 103.974C471.463 101.77 470.212 99.9882 468.521 98.6293C466.831 97.2704 464.677 96.5909 462.058 96.5909C459.44 96.5909 457.286 97.2704 455.595 98.6293C453.905 99.9882 452.654 101.77 451.842 103.974C451.03 106.178 450.624 108.556 450.624 111.108C450.624 113.66 451.03 116.03 451.842 118.217C452.654 120.405 453.905 122.17 455.595 123.512C457.286 124.854 459.44 125.526 462.058 125.526ZM494.181 107.031V130H488.315V91.8182H493.982V97.7841H494.479C495.374 95.8452 496.733 94.2874 498.556 93.1108C500.379 91.9176 502.732 91.321 505.616 91.321C508.201 91.321 510.463 91.8513 512.402 92.9119C514.341 93.956 515.849 95.5469 516.926 97.6847C518.003 99.8059 518.542 102.491 518.542 105.739V130H512.675V106.136C512.675 103.137 511.897 100.8 510.339 99.1264C508.781 97.4361 506.643 96.5909 503.925 96.5909C502.053 96.5909 500.379 96.9969 498.904 97.8089C497.446 98.621 496.294 99.8059 495.449 101.364C494.604 102.921 494.181 104.811 494.181 107.031ZM545.27 130.795C541.591 130.795 538.418 129.983 535.75 128.359C533.098 126.719 531.052 124.432 529.61 121.499C528.185 118.549 527.472 115.118 527.472 111.207C527.472 107.296 528.185 103.849 529.61 100.866C531.052 97.867 533.057 95.5303 535.626 93.8565C538.211 92.1662 541.227 91.321 544.674 91.321C546.662 91.321 548.626 91.6525 550.565 92.3153C552.504 92.9782 554.269 94.0554 555.86 95.5469C557.451 97.0218 558.719 98.9773 559.663 101.413C560.608 103.849 561.08 106.849 561.08 110.412V112.898H531.648V107.827H555.114C555.114 105.672 554.683 103.75 553.822 102.06C552.976 100.369 551.767 99.0353 550.192 98.0575C548.635 97.0798 546.795 96.5909 544.674 96.5909C542.337 96.5909 540.315 97.1709 538.608 98.331C536.918 99.4744 535.617 100.966 534.706 102.805C533.794 104.645 533.339 106.617 533.339 108.722V112.102C533.339 114.986 533.836 117.43 534.83 119.435C535.841 121.424 537.241 122.94 539.031 123.984C540.821 125.012 542.901 125.526 545.27 125.526C546.812 125.526 548.204 125.31 549.447 124.879C550.706 124.432 551.791 123.769 552.703 122.891C553.614 121.996 554.319 120.885 554.816 119.56L560.483 121.151C559.887 123.073 558.884 124.763 557.476 126.222C556.067 127.663 554.327 128.79 552.256 129.602C550.184 130.398 547.856 130.795 545.27 130.795Z" fill="white" fill-opacity="0.7"/>
<path d="M275.62 97.2727C275.62 104.176 274.374 110.142 271.881 115.17C269.388 120.199 265.968 124.077 261.622 126.804C257.275 129.531 252.311 130.895 246.728 130.895C241.146 130.895 236.181 129.531 231.835 126.804C227.488 124.077 224.068 120.199 221.575 115.17C219.083 110.142 217.836 104.176 217.836 97.2727C217.836 90.3693 219.083 84.4034 221.575 79.375C224.068 74.3466 227.488 70.4688 231.835 67.7415C236.181 65.0142 241.146 63.6506 246.728 63.6506C252.311 63.6506 257.275 65.0142 261.622 67.7415C265.968 70.4688 269.388 74.3466 271.881 79.375C274.374 84.4034 275.62 90.3693 275.62 97.2727ZM267.95 97.2727C267.95 91.6051 267.002 86.8217 265.105 82.9226C263.23 79.0234 260.684 76.0724 257.467 74.0696C254.271 72.0668 250.691 71.0653 246.728 71.0653C242.765 71.0653 239.175 72.0668 235.958 74.0696C232.762 76.0724 230.215 79.0234 228.319 82.9226C226.444 86.8217 225.507 91.6051 225.507 97.2727C225.507 102.94 226.444 107.724 228.319 111.623C230.215 115.522 232.762 118.473 235.958 120.476C239.175 122.479 242.765 123.48 246.728 123.48C250.691 123.48 254.271 122.479 257.467 120.476C260.684 118.473 263.23 115.522 265.105 111.623C267.002 107.724 267.95 102.94 267.95 97.2727ZM390.681 130V124.247L425.965 71.5767H390.297V64.5455H435.425V70.2983L400.141 122.969H435.808V130H390.681Z" fill="white"/>
<path d="M154.65 54L111 97.65L154.65 141.3" stroke="white" stroke-opacity="0.7" stroke-width="7"/>
<path d="M642 141L685.65 97.35L642 53.7" stroke="white" stroke-opacity="0.7" stroke-width="7"/>
<path d="M622.417 38L582 156.017" stroke="white" stroke-opacity="0.7" stroke-width="7"/>
</svg>
